# xmcd
#
# Track frame offsets:
# 150
# 11050
# 23438
# 37213
# 49450
# 61300
# 76288
# 89950
# 104363
# 122613
# 136138
# 147863
# 163500
# 177338
# 194288
# 206100
# 220125
# 232738
# 245375
# 260825
# 279175
#
# Disc length: 3865 seconds
#
#
# Revision: 2
# Processed by: cddbd v1.5.2PL0 Copyright (c) Steve Scherf et al.
# Submitted via: FreeRIP 2.951 
#
DISCID=2f0f1715
DTITLE=var - The Sound Of Wales
DYEAR=1900
DGENRE=Classical
TTITLE0=Orpheus Choir - Land Of My Fathers
TTITLE1=Orpheus Choir - Where Shall I Be
TTITLE2=Orpheus Choir - Calon Lan
TTITLE3=Duvant Male Choir - My Old Kentucky Home
TTITLE4=Duvant Male Choir - Deus Salutis
TTITLE5=Duvant Male Choir - Sarah
TTITLE6=Duvant Male Choir - All Through The Night
TTITLE7=Canoldir Male Choir - Speed Your Journey
TTITLE8=Canoldir Male Choir - How Great Thou Art
TTITLE9=Canoldir Male Choir - The Lord's Prayer
TTITLE10=Canoldir Male Choir - We'll keep A Welcome
TTITLE11=Treorchy Male Choir - Aberystwyth
TTITLE12=Treorchy Male Choir - In From Finlandia
TTITLE13=Treorchy Male Choir - Unwaith Eto'n Nghymru Ammwyl
TTITLE14=Treorchy Male Choir - Mil Harddach Wyt Na'r Rhosyn Gwyn
TTITLE15=Treorchy Male Choir - Christus Redemtor
TTITLE16=Morrison Orpheus Choir - Rise Up Shepard And Follow
TTITLE17=Morrison Orpheus Choir - Anvil Chorus
TTITLE18=Morrison Orpheus Choir - Deep Harmony
TTITLE19=Morrison Orpheus Choir - My Lord What A Morning
TTITLE20=Morrison Orpheus Choir - Going Home
EXTD=
EXTT0=
EXTT1=
EXTT2=
EXTT3=
EXTT4=
EXTT5=
EXTT6=
EXTT7=
EXTT8=
EXTT9=
EXTT10=
EXTT11=
EXTT12=
EXTT13=
EXTT14=
EXTT15=
EXTT16=
EXTT17=
EXTT18=
EXTT19=
EXTT20=
PLAYORDER=
